#tb 0: 1/15
0,          0,          0,        1,   153600, 0x050422c0
0,          1,          1,        1,   153600, 0x0cf35359
0,          2,          2,        1,   153600, 0x2ae95db0
0,          3,          3,        1,   153600, 0x8c855b14
0,          4,          4,        1,   153600, 0xc7a890b4
0,          5,          5,        1,   153600, 0x755bed3b
0,          6,          6,        1,   153600, 0x454a4e27
0,          7,          7,        1,   153600, 0xdc3eaecb
0,          8,          8,        1,   153600, 0x190f9a82
0,          9,          9,        1,   153600, 0x4f67511f
